<svg width="24" height="24" viewBox="0 0 24 24" fill="none" xmlns="http://www.w3.org/2000/svg">
<path fill-rule="evenodd" clip-rule="evenodd" d="M6.10059 15.8738L9.07759 15.6028L14.6776 9.99778L11.9816 7.30078L6.36459 12.9178L6.10059 15.8738ZM13.3213 5.96267L16.0163 8.65767L17.9633 6.70767L15.2693 4.01367L13.3213 5.96267ZM4.29105 17.6857C4.08105 17.4757 3.97605 17.1837 4.00205 16.8877L4.38105 12.7177C4.42305 12.2607 4.62505 11.8297 4.95105 11.5037L13.947 2.5077C14.649 1.8027 15.922 1.8377 16.663 2.5767L19.401 5.3147L19.402 5.3157C20.167 6.0817 20.198 7.2997 19.47 8.0297L10.473 17.0267C10.148 17.3517 9.71705 17.5537 9.25905 17.5957L5.08905 17.9747C5.05905 17.9767 5.02905 17.9777 4.99805 17.9777C4.73505 17.9777 4.48005 17.8737 4.29105 17.6857ZM19.998 20.9766C19.998 21.5266 19.548 21.9766 18.998 21.9766H4.99805C4.44905 21.9766 3.99805 21.5266 3.99805 20.9766C3.99805 20.4276 4.44905 19.9766 4.99805 19.9766H18.998C19.548 19.9766 19.998 20.4276 19.998 20.9766Z" fill="#C7C7C7"/>
</svg>
